<svg width="90" height="29" viewBox="0 0 90 29" fill="none" xmlns="http://www.w3.org/2000/svg">
<path d="M75.7022 0.589481C77.495 0.346744 79.7557 0.456214 81.4946 0.938514C93.6362 4.30351 92.4939 25.0266 79.8858 26.5036C62.0677 28.5915 61.0951 2.57262 75.7022 0.589481ZM77.1285 3.15012C73.1082 3.9291 72.1532 11.4222 72.3293 14.6809C72.5244 18.2871 74.9565 26.6226 79.9191 23.1053C84.3154 19.991 84.3646 6.29459 79.4035 3.60227C78.5801 3.15488 78.0947 2.96132 77.1269 3.14853L77.1285 3.15012Z" fill="#FAE7C2"/>
<path d="M8.86412 1.0874L15.7258 19.6734V3.23237C15.7258 2.39945 13.8823 2.05518 14.2964 1.0874H20.5869C20.8867 2.15989 19.846 1.99648 19.4224 2.63901C18.3642 4.23981 19.5588 21.3583 19.3208 24.525L20.5869 26.2495H14.7247C13.5063 26.2495 10.9964 23.9697 10.4633 22.7909L5.14692 8.52181V24.3917C5.14692 24.8566 6.22258 25.5245 6.57478 25.8243V26.2495H0.000264095C0.56189 25.3182 1.75019 24.7884 1.72163 23.5398C1.27741 17.2699 2.29119 10.2543 1.72957 4.0764C1.68038 3.53539 1.68673 3.19271 1.39957 2.69137C0.996595 1.98854 -0.0187741 1.97109 0.000264095 1.0874H8.86412Z" fill="#FAE7C2"/>
<path d="M38.6017 1.0874L39.744 5.9469C38.3717 6.43396 38.094 4.23346 36.7439 4.23346H32.1684L31.7401 4.66182V11.9534H35.8856C36.1284 11.9534 37.4563 10.5906 38.3162 11.0983L36.4536 16.8129C35.9126 16.9319 35.681 15.7674 34.9036 15.5088C33.9532 15.1931 32.7364 15.4707 31.7401 15.3851V23.1051H37.3151C37.9957 23.1051 39.0285 21.0537 40.0296 21.3916L38.8873 26.2511H23.7329C24.4976 25.0803 25.3131 25.0914 25.4654 23.5525C26.081 17.3444 24.9656 10.1194 25.4543 3.80034C25.6034 2.33599 23.982 2.24397 23.7329 1.09058H38.6017V1.0874Z" fill="#FAE7C2"/>
<path d="M47.1847 19.672L46.0361 21.3855C51.7713 21.4521 51.4223 29.8004 45.3364 28.8056C43.1328 28.4455 41.7652 25.0773 43.1677 23.2385L59.7467 1.2177C61.4491 -0.156223 63.4973 -0.464006 65.3471 0.7941L50.1864 21.4061L49.8977 21.6488L47.1847 19.6752V19.672ZM45.6712 22.8752C42.9535 23.4686 43.8737 27.8267 46.4422 27.676C49.7676 27.4793 49.3995 22.0629 45.6712 22.8752Z" fill="#FAE7C2"/>
<path d="M56.3295 26.2499C56.201 25.5836 56.9879 25.4217 57.1402 24.9014C57.6178 23.2641 54.4891 20.0815 54.0449 18.3792L57.3338 13.9544C57.7288 13.8545 57.8272 14.1956 58.0001 14.4272C59.9896 17.1036 61.7348 21.9854 63.8067 24.3461C64.416 25.0394 65.0252 25.1631 65.6773 25.6105C65.9343 25.7866 66.2008 25.5614 66.0501 26.2499H56.3279H56.3295Z" fill="#FAE7C2"/>
<path d="M52.3251 1.0874C52.5297 2.08691 51.4144 2.24873 51.4636 3.20381C51.5223 4.34928 53.5578 6.22771 53.4785 7.21294L50.3197 11.9519C49.9009 12.2327 45.5649 4.09226 45.0144 3.3942C44.172 2.32647 42.9551 2.18051 42.6045 1.0874H52.3267H52.3251Z" fill="#FAE7C2"/>
</svg>
