<svg width="107" height="35" viewBox="0 0 107 35" fill="none" xmlns="http://www.w3.org/2000/svg">
<path d="M89.5811 0.697475C91.7025 0.410237 94.3778 0.539776 96.4354 1.1105C110.803 5.09242 109.451 29.6147 94.5317 31.3626C73.4469 33.8332 72.2961 3.0442 89.5811 0.697475ZM91.2688 3.72756C86.5116 4.64935 85.3814 13.5162 85.5898 17.3723C85.8207 21.6396 88.6987 31.5034 94.5711 27.3412C99.7734 23.6559 99.8316 7.44852 93.961 4.26261C92.9866 3.73319 92.4122 3.50415 91.267 3.72569L91.2688 3.72756Z" fill="#282E21"/>
<path d="M10.4892 1.28693L18.6089 23.2804V3.82514C18.6089 2.83952 16.4274 2.43213 16.9174 1.28693H24.3612C24.716 2.55603 23.4844 2.36266 22.9832 3.123C21.731 5.01728 23.1446 25.2742 22.863 29.0214L24.3612 31.0621H17.4243C15.9824 31.0621 13.0124 28.3643 12.3816 26.9694L6.09052 10.0843V28.8637C6.09052 29.4138 7.36339 30.2042 7.78016 30.559V31.0621H0.000312512C0.664904 29.9601 2.07106 29.3331 2.03727 27.8556C1.5116 20.4362 2.71125 12.1344 2.04665 4.82391C1.98846 4.18372 1.99596 3.77821 1.65616 3.18495C1.17931 2.35328 -0.022216 2.33263 0.000312512 1.28693H10.4892Z" fill="#282E21"/>
<path d="M45.6788 1.28693L47.0305 7.03733C45.4065 7.61369 45.078 5.00977 43.4804 5.00977H38.066L37.5591 5.51666V14.1451H42.4647C42.7519 14.1451 44.3233 12.5324 45.3408 13.1332L43.1368 19.8955C42.4966 20.0363 42.2225 18.6583 41.3026 18.3523C40.1781 17.9787 38.7381 18.3072 37.5591 18.2059V27.3412H44.1562C44.9616 27.3412 46.1838 24.9137 47.3684 25.3136L46.0167 31.064H28.084C28.9889 29.6785 29.9539 29.6916 30.1341 27.8706C30.8625 20.5244 29.5427 11.9748 30.1209 4.49724C30.2974 2.76442 28.3787 2.65553 28.084 1.29068H45.6788V1.28693Z" fill="#282E21"/>
<path d="M55.8351 23.2786L54.4758 25.3062C61.2626 25.385 60.8495 35.2638 53.6479 34.0867C51.0402 33.6605 49.4219 29.6748 51.0815 27.4989L70.7001 1.44095C72.7146 -0.184864 75.1383 -0.549075 77.3273 0.939686L59.3871 25.3306L59.0454 25.6178L55.8351 23.2824V23.2786ZM54.044 27.069C50.8281 27.7712 51.917 32.9283 54.9565 32.75C58.8914 32.5172 58.4559 26.1078 54.044 27.069Z" fill="#282E21"/>
<path d="M66.6565 31.0623C66.5045 30.2738 67.4357 30.0823 67.6159 29.4665C68.181 27.5291 64.4788 23.7631 63.9531 21.7486L67.8449 16.5126C68.3124 16.3943 68.4288 16.798 68.6334 17.0721C70.9877 20.2392 73.0528 26.0159 75.5046 28.8094C76.2255 29.6299 76.9465 29.7763 77.7181 30.3057C78.0222 30.5141 78.3376 30.2475 78.1592 31.0623H66.6547H66.6565Z" fill="#282E21"/>
<path d="M61.9182 1.28693C62.1604 2.46967 60.8406 2.66117 60.8988 3.79135C60.9683 5.14681 63.3769 7.36963 63.2831 8.53548L59.5452 14.1432C59.0496 14.4755 53.9187 4.84268 53.2673 4.01663C52.2704 2.75316 50.8304 2.58044 50.4155 1.28693H61.9201H61.9182Z" fill="#282E21"/>
</svg>
