<svg width="781" height="372" viewBox="0 0 781 372" fill="none" xmlns="http://www.w3.org/2000/svg">
<g clip-path="url(#clip0_301_167)">
<path d="M656.916 5.12588C672.473 3.01781 692.091 3.96851 707.18 8.15711C812.54 37.3809 802.628 217.353 693.22 230.18C538.6 248.313 530.161 22.3487 656.916 5.12588ZM669.292 27.364C634.406 34.1292 626.118 99.204 627.647 127.505C629.34 158.823 650.445 231.214 693.509 200.667C731.658 173.621 732.085 54.6726 689.035 31.2909C681.889 27.4054 677.677 25.7244 669.279 27.3503L669.292 27.364Z" fill="#FAE7C2"/>
<path d="M76.9177 9.45166L136.461 170.864V28.0799C136.461 20.8463 120.463 17.8564 124.057 9.45166H178.644C181.246 18.7658 172.214 17.3466 168.539 22.9268C159.356 36.8291 169.722 185.497 167.657 212.998L178.644 227.975H127.774C117.201 227.975 95.4209 208.176 90.7951 197.939L44.6612 74.0167V211.841C44.6612 215.878 53.9953 221.679 57.0516 224.283V227.975H0.000338594C4.87393 219.887 15.1856 215.286 14.9378 204.442C11.0829 149.99 19.8802 89.0626 15.0066 35.41C14.5798 30.7116 14.6349 27.7354 12.143 23.3815C8.64614 17.2777 -0.164868 17.1262 0.000338594 9.45166H76.9177Z" fill="#FAE7C2"/>
<path d="M334.97 9.45166L344.882 51.6546C332.973 55.8845 330.564 36.774 318.848 36.774H279.144L275.426 40.4941V103.819H311.4C313.507 103.819 325.03 91.9836 332.492 96.3927L316.329 146.022C311.634 147.055 309.624 136.942 302.878 134.696C294.632 131.954 284.072 134.366 275.426 133.622V200.667H323.804C329.711 200.667 338.673 182.851 347.36 185.786L337.448 227.989H205.943C212.579 217.821 219.655 217.917 220.977 204.552C226.319 150.638 216.64 87.8915 220.881 33.0125C222.175 20.2952 208.105 19.496 205.943 9.47922H334.97V9.45166Z" fill="#FAE7C2"/>
<path d="M409.451 170.851L399.483 185.732C449.252 186.31 446.223 258.812 393.412 250.173C374.289 247.045 362.422 217.794 374.592 201.825L518.459 10.5821C533.232 -1.3499 551.005 -4.02289 567.058 6.9033L435.498 185.911L432.993 188.019L409.451 170.879V170.851ZM396.317 198.67C372.733 203.823 380.718 241.672 403.008 240.363C431.864 238.654 428.67 191.615 396.317 198.67Z" fill="#FAE7C2"/>
<path d="M488.805 227.975C487.69 222.189 494.518 220.783 495.84 216.264C499.984 202.045 472.835 174.405 468.98 159.621L497.519 121.194C500.947 120.326 501.801 123.288 503.302 125.3C520.566 148.544 535.71 190.939 553.69 211.441C558.976 217.463 564.263 218.537 569.921 222.423C572.151 223.952 574.464 221.996 573.156 227.975H488.791H488.805Z" fill="#FAE7C2"/>
<path d="M454.056 9.45166C455.832 18.132 446.154 19.5374 446.581 27.8319C447.09 37.7798 464.753 54.0933 464.065 62.6496L436.655 103.805C433.02 106.244 395.394 35.5477 390.617 29.4853C383.307 20.2125 372.747 18.9449 369.705 9.45166H454.07H454.056Z" fill="#FAE7C2"/>
<path d="M315.145 314.889C345.061 296.137 328.306 347.971 313.383 351.87L301.474 344.705L302.727 352.118C298.087 353.606 296.573 348.026 293.613 347.516C289.855 346.882 286.399 354.901 280.328 351.043C270.939 345.063 280.052 332.387 282.407 325.553C283.77 321.585 287.528 321.627 281.594 317.383L265.156 345.546C259.622 353.289 250.577 354.129 246.915 344.691L236.989 352.214C219.353 352.297 233.987 314.724 248.099 310.893C253.936 309.309 261.219 313.732 267.979 309.929L258.08 339.704C272.012 336.218 275.041 317.162 275.454 304.969L292.512 319.105L287.872 339.717C298.556 332.525 301.46 317.438 308.193 306.691C311.813 300.918 320.487 283.957 327.494 293.767L315.173 314.889H315.145ZM255.561 317.383C246.488 312.905 236.507 337.912 238.214 339.704C245.717 341.812 257.626 319.326 255.561 317.383ZM322.552 317.383C319.633 314.117 295.912 337.416 306.472 339.717C315.489 341.674 322.868 324.947 322.552 317.383Z" fill="#FAE7C2"/>
<path d="M493.775 339.704C498.373 344.774 511.562 317.631 514.811 314.848C528.771 302.888 538.959 313.415 535.957 329.77L552.492 310.246C590.173 304.707 574.34 340.599 554.543 352.201C548.981 352.201 545.429 341.426 542.098 347.103L538.394 371.986C523.305 364.684 536.095 348.866 535.916 337.224C527.973 338.96 521.598 350.685 514.288 351.76C508.217 352.655 505.463 347.874 502.021 347.571C498.235 347.227 490.388 358.056 485.06 347.13C481.205 339.249 486.258 334.137 487.676 327.386C488.378 324.038 485.941 319.987 487.483 317.438C489.025 314.889 498.924 309.226 502.393 309.915C507.225 310.866 505.105 313.332 503.756 316.143C501.925 319.959 490.691 336.3 493.775 339.704ZM522.397 317.466C504.871 339.924 532.612 346.841 529.831 319.808L522.397 317.466ZM565.708 317.383C562.79 314.117 539.069 337.416 549.628 339.717C558.646 341.674 566.025 324.947 565.708 317.383Z" fill="#FAE7C2"/>
<path d="M218.348 324.851C233.01 345.628 210.211 365.924 191.075 352.132L189.822 359.572C172.145 341.095 198.413 310.149 208.422 292.568C195.012 294.58 185.898 304.114 183.572 317.369C164.408 309.832 185.499 292.334 197.945 288.283C235.364 276.131 252.945 310.521 218.334 324.865L218.348 324.851ZM222.45 314.021C226.732 309.695 230.862 300.353 227.09 294.938L219.683 292.417L200.974 322.302C203.782 324.479 219.435 317.066 222.45 314.021ZM196.031 327.29C197.793 332.002 188.913 343.41 193.443 346C205.778 353.069 222.327 337.017 213.392 331.01L196.031 327.276V327.29Z" fill="#FAE7C2"/>
<path d="M451.592 314.917C462.964 313.263 468.415 306.691 466.488 295.021C456.741 291.797 437.563 301.276 436.586 311.279C435.291 324.534 465.111 327.179 455.323 347.185C446.126 365.979 403.035 354.309 423.094 332.291C429.537 329.163 424.002 342.005 430.831 344.361C436.82 346.428 445.755 344.774 448.508 338.491C445.892 328.585 432.868 328.86 428.642 319.229C414.159 286.313 490.828 268.057 472.05 311.775C468.608 319.794 452.776 328.929 451.606 314.917H451.592Z" fill="#FAE7C2"/>
<path d="M380.47 311.527C395.064 324.672 388.235 321.02 384.614 339.717L399.455 324.823C400.694 333.627 386.074 356.761 377.084 351.029C368.094 345.298 376.767 332.484 379.163 325.553C380.085 322.88 384.312 319.532 378.35 317.383C372.885 315.413 372.306 335.598 366.813 338.05C359.407 348.632 347.773 358.18 336.236 346.992C327.962 337.83 343.643 309.667 356.116 309.97C374.674 316.653 358.567 340.448 342.418 337.251C360.921 354.612 373.49 320.125 372.21 304.955C378.006 303.494 377.813 309.13 380.47 311.513V311.527Z" fill="#FAE7C2"/>
<path d="M478.892 327.331L483.807 328.502C477.681 334.854 473.248 343.038 473.895 352.118C469.407 353.11 466.103 348.66 465.29 344.995C462.798 333.807 482.183 295.117 494.959 290.061C499.571 290.942 497.795 293.409 496.335 296.302C493.582 301.772 476.359 322.715 478.892 327.317V327.331Z" fill="#FAE7C2"/>
<path d="M153.835 322.329H111.652V329.783H153.835V322.329Z" fill="#FAE7C2"/>
<path d="M645.118 322.329H602.935V329.783H645.118V322.329Z" fill="#FAE7C2"/>
</g>
<defs>
<clipPath id="clip0_301_167">
<rect width="781" height="372" fill="white"/>
</clipPath>
</defs>
</svg>
