<svg width="328" height="156" viewBox="0 0 328 156" fill="none" xmlns="http://www.w3.org/2000/svg">
<g opacity="0.48" clip-path="url(#clip0_301_258)">
<path d="M275.888 2.14954C282.421 1.26551 290.66 1.66419 296.997 3.4207C341.246 15.6758 337.083 91.1479 291.135 96.5273C226.198 104.131 222.654 9.37203 275.888 2.14954ZM281.086 11.4752C266.434 14.3122 262.954 41.6017 263.595 53.4697C264.307 66.603 273.17 96.9606 291.256 84.1508C307.278 72.8086 307.457 22.9272 289.377 13.1219C286.376 11.4926 284.607 10.7876 281.08 11.4694L281.086 11.4752Z" fill="#FAE7C2"/>
<path d="M32.3033 3.96362L57.3099 71.6528V11.7755C57.3099 8.74202 50.5914 7.4882 52.1005 3.96362H75.0256C76.1184 7.86955 72.3255 7.27441 70.7817 9.6145C66.9252 15.4445 71.2789 77.789 70.4117 89.3219L75.0256 95.6026H53.6616C49.2211 95.6026 40.0742 87.2996 38.1315 83.0066L18.7564 31.0393V88.8365C18.7564 90.5295 22.6765 92.962 23.9601 94.0541V95.6026H-1.40993e-05C2.04677 92.2109 6.37739 90.2811 6.27332 85.7338C4.6544 62.8991 8.34901 37.3489 6.30223 14.8494C6.12299 12.8791 6.14612 11.631 5.0996 9.80517C3.631 7.24552 -0.0693966 7.18196 -1.40993e-05 3.96362H32.3033Z" fill="#FAE7C2"/>
<path d="M140.679 3.96362L144.842 21.6616C139.841 23.4355 138.829 15.4214 133.908 15.4214H117.233L115.672 16.9814V43.5371H130.78C131.665 43.5371 136.504 38.5738 139.638 40.4228L132.85 61.2351C130.879 61.6684 130.035 57.4274 127.201 56.4856C123.738 55.3358 119.303 56.3469 115.672 56.0349V84.1506H135.99C138.47 84.1506 142.234 76.6796 145.883 77.9104L141.72 95.6084H86.4912C89.2781 91.3442 92.25 91.3846 92.805 85.78C95.0484 63.1707 90.9837 36.8577 92.7645 13.844C93.308 8.5109 87.399 8.17578 86.4912 3.97518H140.679V3.96362Z" fill="#FAE7C2"/>
<path d="M171.959 71.6472L167.772 77.8874C188.674 78.1301 187.402 108.534 165.223 104.911C157.192 103.6 152.208 91.3328 157.319 84.6361L217.739 4.4376C223.943 -0.566146 231.408 -1.68708 238.149 2.89487L182.898 77.9625L181.846 78.8466L171.959 71.6588V71.6472ZM166.443 83.313C156.538 85.4739 159.892 101.346 169.253 100.797C181.371 100.081 180.03 80.3546 166.443 83.313Z" fill="#FAE7C2"/>
<path d="M205.285 95.6026C204.817 93.1758 207.685 92.5865 208.24 90.6913C209.98 84.7284 198.578 73.1377 196.959 66.938L208.945 50.8231C210.385 50.4591 210.743 51.7014 211.374 52.545C218.624 62.2925 224.984 80.0713 232.535 88.669C234.756 91.194 236.976 91.6447 239.352 93.274C240.289 93.9154 241.26 93.0949 240.711 95.6026H205.28H205.285Z" fill="#FAE7C2"/>
<path d="M190.692 3.96362C191.438 7.60376 187.373 8.19311 187.553 11.6715C187.767 15.8432 195.185 22.6843 194.896 26.2725L183.384 43.5313C181.857 44.554 166.056 14.9071 164.049 12.3648C160.979 8.47623 156.544 7.94466 155.267 3.96362H190.698H190.692Z" fill="#FAE7C2"/>
<path d="M132.353 132.05C144.917 124.186 137.88 145.923 131.613 147.558L126.612 144.554L127.138 147.662C125.189 148.286 124.553 145.946 123.31 145.733C121.732 145.467 120.28 148.83 117.731 147.212C113.787 144.704 117.615 139.388 118.604 136.522C119.176 134.858 120.755 134.876 118.263 133.096L111.359 144.906C109.035 148.153 105.236 148.506 103.698 144.548L99.5293 147.703C92.1227 147.737 98.2689 131.981 104.195 130.375C106.647 129.71 109.705 131.565 112.544 129.97L108.387 142.456C114.238 140.995 115.51 133.004 115.684 127.89L122.848 133.818L120.899 142.462C125.386 139.446 126.606 133.119 129.433 128.612C130.954 126.191 134.596 119.079 137.539 123.193L132.365 132.05H132.353ZM107.329 133.096C103.519 131.218 99.3269 141.705 100.044 142.456C103.195 143.34 108.196 133.911 107.329 133.096ZM135.464 133.096C134.238 131.727 124.276 141.497 128.71 142.462C132.498 143.283 135.597 136.268 135.464 133.096Z" fill="#FAE7C2"/>
<path d="M207.373 142.456C209.304 144.583 214.843 133.2 216.207 132.033C222.07 127.018 226.349 131.432 225.088 138.29L232.032 130.103C247.857 127.78 241.208 142.832 232.894 147.697C230.558 147.697 229.066 143.179 227.667 145.559L226.112 155.994C219.775 152.932 225.146 146.299 225.071 141.416C221.735 142.144 219.058 147.061 215.988 147.512C213.438 147.888 212.281 145.883 210.836 145.756C209.246 145.611 205.95 150.153 203.713 145.571C202.094 142.266 204.216 140.122 204.811 137.291C205.106 135.887 204.083 134.188 204.73 133.119C205.378 132.05 209.535 129.675 210.992 129.964C213.022 130.363 212.131 131.397 211.564 132.576C210.795 134.177 206.077 141.029 207.373 142.456ZM219.393 133.131C212.033 142.549 223.683 145.449 222.515 134.113L219.393 133.131ZM237.583 133.096C236.357 131.727 226.395 141.497 230.83 142.462C234.617 143.283 237.716 136.268 237.583 133.096Z" fill="#FAE7C2"/>
<path d="M91.7005 136.228C97.8582 144.941 88.2834 153.452 80.2466 147.668L79.7205 150.788C72.2965 143.04 83.3284 130.063 87.5318 122.69C81.9002 123.533 78.0726 127.532 77.0955 133.09C69.0471 129.93 77.905 122.592 83.1318 120.893C98.8469 115.797 106.23 130.219 91.6947 136.233L91.7005 136.228ZM93.4235 131.686C95.2217 129.872 96.9562 125.954 95.372 123.684L92.2614 122.626L84.4038 135.159C85.5833 136.072 92.1573 132.963 93.4235 131.686ZM82.3281 137.25C83.0682 139.226 79.3389 144.011 81.2411 145.097C86.4217 148.061 93.3715 141.33 89.619 138.81L82.3281 137.245V137.25Z" fill="#FAE7C2"/>
<path d="M189.657 132.062C194.433 131.368 196.722 128.612 195.913 123.718C191.819 122.366 183.765 126.342 183.355 130.536C182.811 136.095 195.335 137.204 191.224 145.594C187.361 153.475 169.264 148.581 177.688 139.348C180.394 138.036 178.07 143.421 180.938 144.409C183.453 145.276 187.205 144.583 188.362 141.948C187.263 137.794 181.794 137.909 180.019 133.87C173.936 120.067 206.135 112.411 198.249 130.744C196.803 134.107 190.154 137.938 189.663 132.062H189.657Z" fill="#FAE7C2"/>
<path d="M159.788 130.64C165.917 136.153 163.049 134.621 161.529 142.462L167.761 136.216C168.282 139.908 162.141 149.61 158.366 147.206C154.59 144.802 158.233 139.429 159.239 136.522C159.626 135.401 161.401 133.997 158.898 133.096C156.602 132.27 156.36 140.735 154.053 141.763C150.942 146.201 146.056 150.205 141.211 145.513C137.736 141.671 144.322 129.86 149.56 129.987C157.354 132.79 150.589 142.768 143.807 141.428C151.578 148.708 156.857 134.246 156.319 127.884C158.753 127.272 158.672 129.635 159.788 130.635V130.64Z" fill="#FAE7C2"/>
<path d="M201.123 137.268L203.187 137.759C200.614 140.423 198.752 143.855 199.024 147.662C197.139 148.078 195.751 146.212 195.41 144.675C194.364 139.983 202.504 123.759 207.87 121.638C209.807 122.008 209.061 123.042 208.448 124.256C207.292 126.55 200.059 135.332 201.123 137.262V137.268Z" fill="#FAE7C2"/>
<path d="M64.6068 135.17H46.8911V138.296H64.6068V135.17Z" fill="#FAE7C2"/>
<path d="M270.933 135.17H253.217V138.296H270.933V135.17Z" fill="#FAE7C2"/>
</g>
<defs>
<clipPath id="clip0_301_258">
<rect width="328" height="156" fill="white"/>
</clipPath>
</defs>
</svg>
