<svg width="779" height="253" viewBox="0 0 779 253" fill="none" xmlns="http://www.w3.org/2000/svg">
<g opacity="0.2">
<path d="M655.245 5.15434C670.763 3.03174 690.331 3.98899 705.381 8.20644C810.474 37.6314 800.586 218.843 691.457 231.759C537.231 250.016 528.813 22.4958 655.245 5.15434ZM667.591 27.5456C632.793 34.3574 624.526 99.8804 626.051 128.376C627.74 159.91 648.791 232.799 691.745 202.042C729.797 174.809 730.223 55.0423 687.282 31.4995C680.155 27.5873 675.953 25.8947 667.577 27.5318L667.591 27.5456Z" fill="#212D20"/>
<path d="M76.7238 9.51025L136.115 172.035V28.2668C136.115 20.9834 120.159 17.9729 123.743 9.51025H178.191C180.786 18.8885 171.778 17.4596 168.111 23.0782C158.952 37.0763 169.292 186.768 167.232 214.459L178.191 229.539H127.45C116.904 229.539 95.1799 209.603 90.5659 199.295L44.5494 74.52V213.293C44.5494 217.358 53.8598 223.199 56.9083 225.821V229.539H0.00228588C4.86347 221.395 15.1489 216.762 14.9017 205.843C11.0567 151.017 19.8315 89.6695 14.9703 35.6473C14.5446 30.9166 14.5996 27.92 12.114 23.536C8.62608 17.3902 -0.1625 17.2376 0.00228588 9.51025H76.7238Z" fill="#212D20"/>
<path d="M334.119 9.51025L344.006 52.0038C332.128 56.2629 329.725 37.0208 318.039 37.0208H278.435L274.728 40.7665V104.528H310.61C312.711 104.528 324.205 92.6106 331.647 97.05L315.526 147.021C310.843 148.062 308.838 137.879 302.11 135.617C293.884 132.857 283.351 135.284 274.728 134.535V202.042H322.982C328.873 202.042 337.813 184.104 346.478 187.059L336.591 229.553H205.421C212.04 219.314 219.099 219.411 220.417 205.954C225.745 151.669 216.091 88.4903 220.321 33.2334C221.612 20.4284 207.577 19.6238 205.421 9.538H334.119V9.51025Z" fill="#212D20"/>
<path d="M408.41 172.021L398.468 187.004C448.11 187.587 445.088 260.587 392.412 251.889C373.338 248.74 361.501 219.287 373.64 203.208L517.141 10.6481C531.876 -1.36608 549.604 -4.05747 565.616 6.94396L434.391 187.184L431.892 189.307L408.41 172.049V172.021ZM395.309 200.031C371.786 205.219 379.751 243.329 401.983 242.011C430.766 240.291 427.58 192.928 395.309 200.031Z" fill="#212D20"/>
<path d="M487.562 229.539C486.45 223.712 493.261 222.297 494.58 217.747C498.713 203.429 471.633 175.6 467.788 160.714L496.255 122.022C499.674 121.148 500.526 124.13 502.022 126.156C519.242 149.56 534.348 192.248 552.282 212.891C557.555 218.954 562.828 220.036 568.472 223.948C570.697 225.488 573.004 223.518 571.699 229.539H487.549H487.562Z" fill="#212D20"/>
<path d="M452.902 9.51025C454.674 18.2504 445.02 19.6654 445.446 28.0171C445.954 38.0335 463.572 54.4594 462.885 63.0746L435.545 104.514C431.919 106.969 394.389 35.7861 389.624 29.6819C382.333 20.3452 371.8 19.0689 368.765 9.51025H452.916H452.902Z" fill="#212D20"/>
</g>
</svg>
