<svg width="207" height="255" viewBox="0 0 207 255" fill="none" xmlns="http://www.w3.org/2000/svg">
<path d="M40.4049 173.317L30.285 188.413C80.8145 189 77.7394 262.551 24.1208 253.787C4.70578 250.614 -7.34303 220.939 5.01328 204.739L151.081 10.7283C166.079 -1.37637 184.124 -4.08805 200.422 6.99628L66.8507 188.595L64.3068 190.734L40.4049 173.345V173.317ZM27.0701 201.538C3.12628 206.766 11.2334 245.163 33.8633 243.835C63.1606 242.102 59.9178 194.382 27.0701 201.538Z" fill="#FAEACB"/>
<path d="M120.973 231.269C119.84 225.398 126.773 223.972 128.115 219.388C132.323 204.963 104.758 176.923 100.845 161.925L129.821 122.941C133.301 122.061 134.168 125.066 135.691 127.107C153.219 150.687 168.595 193.697 186.85 214.495C192.217 220.604 197.585 221.694 203.329 225.636C205.594 227.187 207.942 225.202 206.614 231.269H120.959H120.973Z" fill="#FAEACB"/>
<path d="M85.6928 9.58154C87.4959 18.3875 77.6696 19.8132 78.1029 28.2278C78.6201 38.3198 96.5535 54.8694 95.8546 63.5496L68.025 105.301C64.3349 107.775 26.1337 36.0554 21.2834 29.9052C13.8613 20.4981 3.14035 19.2122 0.0512695 9.58154H85.7068H85.6928Z" fill="#FAEACB"/>
</svg>
