<svg width="381" height="469" viewBox="0 0 381 469" fill="none" xmlns="http://www.w3.org/2000/svg">
<path d="M74.3685 319.005L55.7421 346.79C148.746 347.871 143.086 483.247 44.3964 467.116C8.66139 461.276 -13.5155 406.657 9.22735 376.839L278.076 19.7464C305.681 -2.53333 338.895 -7.5244 368.893 12.8772L123.044 347.125L118.362 351.061L74.3685 319.056V319.005ZM49.8248 370.948C5.75418 380.57 20.676 451.242 62.3282 448.798C116.252 445.608 110.284 357.776 49.8248 370.948Z" fill="#212D20"/>
<path d="M222.66 425.669C220.576 414.864 233.337 412.24 235.807 403.801C243.55 377.251 192.816 325.642 185.613 298.037L238.945 226.284C245.351 224.663 246.946 230.194 249.751 233.95C282.012 277.352 310.312 356.515 343.912 394.797C353.791 406.039 363.671 408.046 374.244 415.301C378.412 418.157 382.734 414.504 380.29 425.669H222.634H222.66Z" fill="#212D20"/>
<path d="M157.725 17.6362C161.044 33.8443 142.958 36.4685 143.755 51.9563C144.707 70.5313 177.715 100.992 176.429 116.969L125.206 193.816C118.414 198.37 48.1016 66.3635 39.1743 55.0435C25.5132 37.7291 5.78043 35.3622 0.0947266 17.6362H157.751H157.725Z" fill="#212D20"/>
</svg>
