<svg width="207" height="255" viewBox="0 0 207 255" fill="none" xmlns="http://www.w3.org/2000/svg">
<path d="M166.595 173.317L176.715 188.413C126.186 189 129.261 262.551 182.879 253.787C202.294 250.614 214.343 220.939 201.987 204.739L55.9196 10.7283C40.9215 -1.37637 22.8762 -4.08805 6.57817 6.99628L140.149 188.595L142.693 190.734L166.595 173.345V173.317ZM179.93 201.538C203.874 206.766 195.767 245.163 173.137 243.835C143.839 242.102 147.082 194.382 179.93 201.538Z" fill="#FAEACB"/>
<path d="M86.0274 231.269C87.1596 225.398 80.2267 223.972 78.8848 219.388C74.6775 204.963 102.242 176.923 106.155 161.925L77.1795 122.941C73.6991 122.061 72.8325 125.066 71.3089 127.107C53.7808 150.687 38.4053 193.697 20.1504 214.495C14.783 220.604 9.4155 221.694 3.67065 225.636C1.40626 227.187 -0.942009 225.202 0.385872 231.269H86.0414H86.0274Z" fill="#FAEACB"/>
<path d="M121.307 9.58154C119.504 18.3875 129.33 19.8132 128.897 28.2278C128.38 38.3198 110.447 54.8694 111.145 63.5496L138.975 105.301C142.665 107.775 180.866 36.0554 185.717 29.9052C193.139 20.4981 203.86 19.2122 206.949 9.58154H121.293H121.307Z" fill="#FAEACB"/>
</svg>
